<?xml version="1.0" encoding="utf-8"?>
<!-- Generator: Adobe Illustrator 24.3.0, SVG Export Plug-In . SVG Version: 6.00 Build 0)  -->
<svg version="1.1" id="Layer_1" xmlns="http://www.w3.org/2000/svg" xmlns:xlink="http://www.w3.org/1999/xlink" x="0px" y="0px"
	 viewBox="0 0 1139.06 763.69" style="enable-background:new 0 0 1139.06 763.69;" xml:space="preserve">
<style type="text/css">
	.st0{fill:#B2B1B1;}
	.st1{fill:#FFFFFF;}
	.st2{fill:none;stroke:#000000;stroke-width:5;stroke-miterlimit:10;}
</style>
<g>
	<rect x="81.37" y="108.32" width="935.59" height="84.75"/>
</g>
<g>
	<rect x="353.06" y="192.56" class="st0" width="414.25" height="107.47"/>
	<path class="st1" d="M766.81,193.06v106.47H353.56V193.06H766.81 M767.81,192.06H352.56v108.47h415.25V192.06L767.81,192.06z"/>
</g>
<g>
	<g>
		<path class="st2" d="M598.29,548.65h-62.9c-97.81-51.75,14.18-186.85,31.71-186.85h-0.51C584.11,361.8,696.1,496.89,598.29,548.65
			z"/>
	</g>
	<path class="st2" d="M584.32,548.65h-32.44c-18.76-26.96-18.46-51.59,5.16-72.42l8.2,17.91c10.54,0,9.54-43.23,9.54-64.74
		C636.3,485.18,584.32,548.65,584.32,548.65z"/>
</g>
<rect x="161.8" y="192.06" class="st2" width="783.1" height="460.79"/>
</svg>
